<?xml version="1.0" encoding="UTF-8"?>
<svg id="Layer_1" data-name="Layer 1" xmlns="http://www.w3.org/2000/svg" viewBox="0 0 150 150">
  <defs>
    <style>
      .cls-1 {
        fill: #54b4b6;
      }
    </style>
  </defs>
  <path class="cls-1" d="M34.29,135.59c-15.65-1.24-19.89-20.75-7.59-29.57-3.73-28.57,17.13-53.58,45.99-54.66l-6.9-6.58,7.25-8.86,24.28,20.28-21.56,22.05-8.8-8.27,6.3-6.58c-12.89,1.36-24.57,7.04-30.68,18.89-2.6,5.04-4.68,13.54-4.28,19.2.32,4.46,2.93,3.31,6.25,5.79,11.67,8.73,5.73,27.18-8.55,28.31-.55.04-1.17.04-1.72,0ZM39.25,115.74c-5.66-5.52-13.99,3.34-8.13,8.41,5.68,4.91,13.1-3.56,8.13-8.41Z"/>
  <path class="cls-1" d="M147.22,49.65c.15,1.32.15,3.84,0,5.16-3.26,27.98-45.91,25.67-45.91-2.58s42.66-30.62,45.91-2.58ZM122.43,38.91c-16.79,2.24-14.46,27.76,2.7,26.79,17.84-1.02,15.7-29.24-2.7-26.79Z"/>
  <path class="cls-1" d="M92.2,107.52l10.61-5.66,5.43,9.36-9.67,5.56c-.89,1.52,4.68,8.36,5.01,10.44l-9.36,5.54-5.46-9.52-10.54,4.89-5.51-8.85,10.25-6.29-5.67-10.6,9.4-4.55,5.51,9.7Z"/>
  <path class="cls-1" d="M22.26,31.32l10.61-5.66,5.43,9.35-9.66,5.56c-.88,1.51,4.67,8.4,5.04,10.46l-9.4,5.52-5.47-10.33-10.54,5.68-4.93-8.86c.03-1.41,8.03-5.1,9.75-6l-5.73-10.87,9.73-5.17,5.18,10.31Z"/>
</svg>