<?xml version="1.0" encoding="UTF-8"?>
<svg id="Layer_1" data-name="Layer 1" xmlns="http://www.w3.org/2000/svg" viewBox="0 0 150 150">
  <defs>
    <style>
      .cls-1 {
        fill: #54b4b6;
      }
    </style>
  </defs>
  <path class="cls-1" d="M77.14,75.44l-5.48-1.57c-22.3-8.58-17.51-42.52,6.52-44.04,27.02-1.71,34.02,35.62,9.03,44.42l-4.36,1.19h18.16c2.46,0,6.32,3.91,6.43,6.47l.04,53.98c-.51,4.34-4.34,6.98-8.55,7.05H20.85c-4.24-.34-7.32-2.52-8.25-6.75v-54c.06-2.67,3.87-6.75,6.46-6.75h58.07ZM79.76,37.42c-6.26.34-6.44,10.25.22,10.15,7.01-.11,6.27-10.5-.22-10.15ZM69.57,47.32c-6.34.75-5.7,10.36.81,10.14,6.54-.22,6.15-10.96-.81-10.14ZM89.38,47.31c-6.46.64-5.7,10.36.5,10.15,6.81-.23,6.35-10.83-.5-10.15ZM78.86,57.22c-5.69.92-4.96,10.43,1.36,10.05,6.85-.41,6.11-11.26-1.36-10.05ZM53.06,97.7c-1.06.14-1.85.85-2.01,1.91-.83,5.38.6,12.7-.03,18.3.67,2.33,2.39,2.23,4.31,1.28,2.37-1.18,10.99-6.56,12.79-8.21,1.77-1.62,1.56-2.82-.18-4.27-3.87-3.24-9.61-5.69-13.69-8.82-.38-.25-.75-.23-1.18-.18ZM31.92,133.84c.43.45,1.48.96,2.14,1.01h29.43c3.8-.45,4.29-6.55-.33-7.18-9.02.69-19.66-1.02-28.49-.03-3.2.36-5.05,3.79-2.75,6.2Z"/>
  <path class="cls-1" d="M134.08,84.51c2.89-.61,4.35.9,4.6,3.67,1.17,13.27-.9,28.26-.01,41.71-.32,3.02-2.79,4.66-5.61,3.2l-19.72-9.68-.5-1,.16-27.77,21.08-10.13Z"/>
  <path class="cls-1" d="M29.35,41.03c25.46-3.04,26.3,35.29,2,34.13-20.97-1.01-21.09-31.85-2-34.13ZM31.97,47.1c-4.81-.01-5.15,7.71,0,7.67,4.9-.03,5.09-7.66,0-7.67ZM24.54,54.22c-5.78.31-3.96,9.71,1.65,7.34,3.82-1.61,2.68-7.58-1.65-7.34ZM39.22,54.25c-4.2.11-5.07,6.32-1.05,7.49,5.94,1.73,6.92-7.65,1.05-7.49ZM31.45,61.7c-4.9.67-4.05,8.06.78,7.73,5.07-.35,4.36-8.43-.78-7.73Z"/>
</svg>