<?xml version="1.0" encoding="UTF-8"?>
<svg id="Layer_1" data-name="Layer 1" xmlns="http://www.w3.org/2000/svg" viewBox="0 0 150 150">
  <defs>
    <style>
      .cls-1 {
        fill: #54b4b6;
      }
    </style>
  </defs>
  <path class="cls-1" d="M20.4,96.55c3.65-43.58,56.82-64.48,88.8-34.16,9.26.96,25.07-2.76,26.4,10.46.48,4.82.1,14.42-.45,19.33-.5,4.49-4.72,8.49-9.17,9.02-.78,5.59-1.05,13.92-3.94,18.86-1.17,1.99-3.61,2.68-4.63.42-.69-1.54,1.93-8.13,2.4-10.48.24-1.22,1.23-7.89.86-8.4-1.5-2.1-3.41,1.62-4.18,2.32-4.64,4.18-7.82,5.05-13.1,7.63-1.25.61-1.7,2.56-4.18,1.35s-.3-4.83.15-6.76c.18-.79,1.09-4.64.76-4.97-4.19-.1-8.35-2.22-10.31-6.04-2.55-4.97-.38-12.03-1.43-17.45-19.47-13.27-44.48,2.07-42.11,25.5.27,2.71,3.12,7.95.57,9.44-3.38,1.99-4.64-3.53-5.11-5.83-4.61-22.68,14.39-42.77,37.31-38.66,3.58.64,6.69,2.25,10.02,3.57.71-5.87,6.14-9.91,11.99-9.21-35.02-25.71-83.05,5.12-74.52,47.98.55,2.78,4.76,11.24-.33,10.94-2.53-.15-3.77-5.97-4.28-8.18-.61-2.62-1.32-6.21-1.52-8.84v-7.83ZM116.8,98.49c6.27-.09,14.66,1.21,15.57-7.23.46-4.24.56-12.64.48-17.01-.06-3.25-2.91-7.54-6.27-8.05-6.74-1.02-21.27-1.15-28.1-.51-3.49.32-6.15,3.32-6.62,6.74-.52,3.83-.52,15.43-.05,19.31.97,8.09,10.77,5.46,16.03,6.78,1.4,1.35-1.84,7.44-2.65,9.09,1,.82,11.18-6.91,11.62-9.1Z"/>
  <path class="cls-1" d="M40.67,139.82c2.11-12.33,15.13-8.7,23.04-14.27,3.1,9.34,15.15,9.15,19.16.46,8.25,4.81,20.53,1.79,22.79,13.81H40.67Z"/>
  <path class="cls-1" d="M59.47,105.66c.49-.82-.1-7.56.09-9.35.53-4.95,5.17-7.98,9.48-9.42l-.26-3.24c5.68-.39,15.52,4.97,17.6,10.26,1.59,4.05.14,7.55.84,11.13.35,1.79,1.96,1.28,1.17,4.87-.54,2.44-6.72,11.72-8.79,13.31-4.41,3.39-9.87,3.02-13.83-.89-1.86-1.84-7.93-11.25-8.07-13.61-.17-3.1,1.32-2.31,1.76-3.07ZM84.91,102.07c-6.85.83-12.77-2.99-19.58-2.3-.93.1-3.57.47-3.74,1.58l.74,5.31c-6.55-.55-.83,6.83.91,9.45,3.37,5.08,7.97,10.85,14.72,6.4,2.33-1.53,7.39-9.47,8.55-12.17.3-.7.98-2.12.5-2.78l-3.03-.44.92-5.06Z"/>
</svg>