<?xml version="1.0" encoding="UTF-8"?>
<svg id="Layer_1" data-name="Layer 1" xmlns="http://www.w3.org/2000/svg" viewBox="0 0 150 150">
  <defs>
    <style>
      .cls-1 {
        fill: #54b4b6;
      }
    </style>
  </defs>
  <path class="cls-1" d="M82.85,72.92c2.55-.94,6.41-5.42,8.93-2.73.89.95.71,2.56,1.63,3.19-.08-1.77,5.73-8.73,6.86-8.98,1.27-.28,2.55,1.28,2.27,2.67-.11.55-5.1,6.89-5.64,7.26-1.09.73-1.92.51-3.02-.03l2.3,6.43c.89-.26.27-1.24,1.39-2.04,1.23-.89,7.96-3.68,9.2-2.8,1.5,3-.3,3.4-2.48,4.47-2.06,1.02-5,2.59-7.2,1.76l2.3,5.97c1.11-.82,1.07-2.09,2.88-2.15,1.33-.05,9.03.74,9.56,1.55,3.34,5.15-9.6,2.74-11.52,1.98-.27.34,2.46,3.86-.49,5.72l-18.36,4.86c-.79,1.12,5.2,8.9,2.76,11.71-.76.88-1.21.19-1.62,2.03-1.14,5.21.46,12.87.08,18.1-.35,4.87-5,5.17-8.79,5.35-11.39.55-26.9.74-38.2,0-4.65-.3-8.43-.7-8.69-6.22-1.23-26.14,1.37-53.64.18-79.94-.13-2.64,2.4-4.52,4.84-4.81,14.49,1.04,30.81-1.34,45.08,0,3.46.32,5.1,1.93,5.54,5.39.66,5.12-.69,13.05-.29,18.76.06.89.27,1.66.49,2.5ZM78.71,131.93v-17.22c-5.62,1.22-6.42-7.22-8.29-11.02-2.01.51-4.08.9-6.14.41-1.39-.33-3.24-1.77-4.2-1.76-1.27,0-2.08,1.34-4.5.79-3.06-.69-4.49-5.88-2.64-8.29.77-1,2.63-1.13,3.26-1.92.54-.67.72-2.56,1.33-3.72,2.28-4.34,6.63-4.86,10.44-7.03,3.57-2.03,7-4.34,10.49-6.51l-.23-25.26h-8.27c-.47,3.68-4.21,5.24-7.57,5.53-3.7.32-15.99.43-18.95-.85-2.32-1-3.06-2.59-4.13-4.7-3.12.55-8.67-1.81-8.45,2.98,1.24,25.12-1.61,51.74.08,76.69.03.41.25,2.38.44,2.51,1.97-.24,3.84.42,5.69.52,10.99.61,26.33.68,37.29-.02.91-.06,4.03-.23,4.33-1.15ZM65.38,50.41h-21.14c.1.58.84,1.02,1.36,1.17,1.69.49,16.73.49,18.43,0,.52-.15,1.26-.58,1.36-1.17ZM89.28,74.3l-18.37,10.59,5.03,12.19,20.67-5.54-7.33-17.23ZM66.61,87.21c-1.44.13-4.93,2.59-5.6,4.08-3.18,7.02,5.27,11.76,10.77,7.09.14-.54-3.6-9.4-4.19-10.43-.27-.48-.28-.8-.97-.73ZM77.34,110.58l2.78-1.15.25-.71c-1.78-2.88-1.68-9.12-6.26-6.86l3.22,8.72Z"/>
  <path class="cls-1" d="M116.74,39.96c2.72-.55,13.89-.45,16.9-.11,2.81.32,5.4,2.32,5.76,5.27.43,3.56.42,13.45,0,17.02-.3,2.56-3.21,4.98-5.75,5.28-3.36.4-12.26.38-15.64-.01-3.46-.39-5.82-2.74-6.21-6.2-.38-3.35-.4-12.29.04-15.58.34-2.47,2.4-5.17,4.89-5.68ZM115.95,45.59v14.01c3.12-1.69,4.68-7.61,8.87-6.34,1.33.4,1.41,2.58,3.33,1.31,1.76-1.17,2.23-4.12,5-3.7.85.13,1.5,1.19,2.56.92-.53-3.2,1.37-6.96-2.84-7.94-2.68-.63-9.95-.5-12.97-.27-1.11.09-3.65.89-3.95,2.02ZM132.72,55.55l-1.98,2.45,4.27,3.43c1.52-2.42.08-4.74-2.3-5.88ZM130.19,63.27l-6.27-5.48c-.98-.17-4.57,4.48-5.23,5.48h11.49Z"/>
  <path class="cls-1" d="M89.2,22.5c3.36-.17,10.55-.12,13.9.11,3.42.24,6.02,2.51,6.42,5.99s.42,12.64.01,16.09c-.39,3.22-3.09,5.4-6.21,5.73-3.54.38-11.63.38-15.17,0-3.54-.38-5.83-2.67-6.21-6.2-.33-3.08-.43-14.06.2-16.8.73-3.14,4.07-4.77,7.07-4.92ZM88.7,26.63c-1.14.1-2.39.78-2.62,1.98-.41,2.09-.34,12.86-.03,15.17.12.9.53,1.87,1.41,2.26.97.43,13.68.49,15.41.26.9-.12,1.87-.53,2.26-1.41.42-.96.5-14.12.26-15.86-.51-3.79-5.83-2.02-8.51-2.02-2.38,0-6.25-.55-8.19-.38Z"/>
  <path class="cls-1" d="M119.04,70.73c3.04-.51,13.75-.51,16.86-.07,3.6.51,5.62,4.11,5.69,7.54.08,3.79.1,9.12,0,12.86-.1,3.67-2.31,6.69-6.11,7.12-3.48.4-12.65.42-16.1.01-3.24-.39-5.38-3.07-5.74-6.21-.38-3.34-.4-12.29.04-15.58.39-2.86,2.51-5.19,5.36-5.67ZM119.49,74.85c-1.05.3-1.6,1.41-1.73,2.41-.35,2.69-.35,11.6,0,14.29.12.9.53,1.87,1.41,2.26.96.42,14.14.5,15.87.26.55-.08.91-.06,1.4-.44,1.51-1.17,1.23-10.53,1.13-12.69-.06-1.28-.21-5.06-1.13-5.77-.4-.39-.89-.37-1.4-.44-1.86-.26-14.16-.28-15.55.12Z"/>
  <path class="cls-1" d="M101.85,103.39c.64-.64,2.86-1.82,3.78-1.96,2.59-.41,15.74-.32,17.92.41,1.81.61,2.99,1.96,3.64,3.71,1.1,2.96,1.03,12.85.72,16.31-.3,3.39-2.05,6.66-5.75,7.11-3.58.43-12.46.37-16.12.01-2.73-.26-5.25-2-5.69-4.87-.52-3.36-.38-11.91-.23-15.58.07-1.79.42-3.82,1.73-5.13ZM105.69,105.62c-1.12.33-1.59,1.84-1.71,2.89-.34,2.92-.34,10.42,0,13.34.5,4.36,3.53,2.96,6.2,2.95,3,0,8.35.57,10.89.24,1.48-.2,2.52-1.25,2.71-2.72.38-2.93.27-10.31,0-13.36-.2-2.22-.62-3.16-3-3.43-1.98-.23-13.68-.32-15.09.1Z"/>
  <path class="cls-1" d="M46.77,128.95c-1.1-.34-1.4-2.51-.2-3.42.87-.66,4.36-.69,5.7-.74,2.45-.1,11.5-.86,11.77,2.11.24.59-.83,2.04-1.17,2.04h-16.09Z"/>
  <path class="cls-1" d="M119.02,45.91c3.54-1.11,5.27,3.45,2.43,4.73-4.04,1.81-5.05-3.9-2.43-4.73Z"/>
  <path class="cls-1" d="M94.69,31.22c8.51-1.4,8.49,13.25-1.14,10.11-4.89-1.59-3.78-9.3,1.14-10.11Z"/>
  <path class="cls-1" d="M101.12,27.52c3.36-.61,4.57,4.01,1.63,4.89-3.95,1.18-5.1-4.25-1.63-4.89Z"/>
  <path class="cls-1" d="M124.46,77.74c1.33.04,8.57,4.26,9.07,5.41.69,1.57.22,2.68-1.06,3.76-.92.78-7.52,4.44-8.45,4.38-.84-.05-2.23-.87-2.47-1.69-.4-1.35-.3-10.32.59-11.17.48-.45,1.66-.71,2.31-.69ZM128.36,84.85c-1.62-2.78-4.35-1.96-2.52.93l2.52-.93Z"/>
  <path class="cls-1" d="M108.59,108.51c.57-2.08,6.73-1.88,8.53-1.63,2.74.38,2.98,3.4.81,4.07-1.19.36-5.39-.47-5.65.78-.44,2.08,4.7.1,5.33,2.49,1.1,4.24-3.9,1.97-5.13,3.23-.03,1.29.62,4.54-.65,5.3-1.06.42-2.48.52-3.23-.47.64-3.6-.86-10.64,0-13.78Z"/>
</svg>