<?xml version="1.0" encoding="UTF-8"?>
<svg id="Layer_1" data-name="Layer 1" xmlns="http://www.w3.org/2000/svg" viewBox="0 0 150 150">
  <defs>
    <style>
      .cls-1 {
        fill: #54b4b6;
      }
    </style>
  </defs>
  <path class="cls-1" d="M91.9,78.62l-5.09-1.55c12.44-27.77-10.4-57.71-40.61-52.61-15.21,2.57-27.8,15.68-30.1,30.88-4.8,31.73,29.5,54.15,56.74,37.46l1.77,4.56c.04.51-.29.66-.63.91-2.57,1.92-8.75,3.91-11.95,4.57C29.89,109.56,2.75,79.84,12.26,48.35c3.5-11.58,13.25-22.2,24.49-26.66,36.05-14.31,70.47,21.69,55.15,56.93Z"/>
  <path class="cls-1" d="M69.79,72.43c.71-.16,1.4-.17,2.08.11,21.12,8.75,43.12,15.54,64.22,24.3,3,1.25,7.01,2.44,3.15,6.1l-32.15,8.76-8.56,31.96c-.98,2.01-3.91,1.95-4.93.01l-25.69-68.75c.06-1.19.65-2.22,1.89-2.49ZM128.91,100.28l-53.5-20.45,20.26,53.5,6.59-24.48.87-1.49,25.78-7.07Z"/>
  <path class="cls-1" d="M55.34,40.09l.39,2.96c3.04.85,6.11,1.65,8.69,3.56l-2.62,4.46c-2.07-.64-3.76-2.45-6.06-2.33v9.05c13.33,1.61,14.05,18.15.4,19.28v5.11h-5.51v-5.11c-1.72.51-10.45-3.29-10.55-4.52l2.93-4.11c1.92.89,4.33,2.98,6.43,3.36.64.11.82.19,1.17-.49l-.41-9.15c-12.28-1.71-12.6-16.77-.4-18.98l.05-3.1h5.51ZM50.23,48.35c-4.95.74-4.65,7.05,0,7.87v-7.87ZM59.16,71.05c2.56-2.35.5-6.88-2.84-7.33-1.34.1.34,7.44-.19,8.63.84-.5,2.34-.67,3.02-1.3Z"/>
</svg>