<?xml version="1.0" encoding="UTF-8"?>
<svg id="Layer_1" data-name="Layer 1" xmlns="http://www.w3.org/2000/svg" viewBox="0 0 150 150">
  <defs>
    <style>
      .cls-1 {
        fill: #54b4b6;
      }
    </style>
  </defs>
  <path class="cls-1" d="M142,126.67c-.99,2.01-2.46,3.15-4.8,2.66l-25.54-10.73-33.76,10.83c-11.54-3.13-22.78-7.37-34.2-10.95l-25.99,10.9c-4.64.77-6.44-5.36-2.17-7.2l24.13-10.35.24-39.28c.44-1.04,1.25-2.02,2.33-2.45l31.51-10.4.03-31.06c.02-4.83,5.98-6.24,7.53-1.5l.13,32.34,31.67,10.62c1.44.62,2.42,2.01,2.46,3.58l.02,38.36,25.3,10.94,1.09,1.68v2.01ZM99.46,73.8l-.62-.51-21.15-7.01-21.15,7.01-.62.51,21.77,7.02,21.77-7.02ZM73.78,87.4l-26.43-8.56v32.98l26.43,8.56v-32.98ZM108.02,78.84l-26.68,8.94v32.6l26.68-8.56v-32.98Z"/>
</svg>