<?xml version="1.0" encoding="UTF-8"?>
<svg id="Layer_1" data-name="Layer 1" xmlns="http://www.w3.org/2000/svg" viewBox="0 0 150 150">
  <defs>
    <style>
      .cls-1 {
        fill: #54b4b6;
      }
    </style>
  </defs>
  <path class="cls-1" d="M144.25,82.83v1.29l-.89,1.55-54.02,54.01c-1.29,1.42-3.11,1.36-4.51.13l-21.09-21.09c-3.67-.26-7.33-.28-10.91-1.18-5.93-1.49-10.92-4.99-14.94-9.5h-5.79v7.84c0,1.46-1.96,2.51-3.24,2.67-2.66.34-10.65.35-13.28-.04-3.02-.44-4.22-3.96-1.57-5.55.17-.1,1.18-.55,1.25-.55h10.67v-41.93h-10.67c-3.04,0-3.71-5.12-.5-5.9h15.15c.99.15,2.2,1.81,2.2,2.69v4.76l5.73-.05c5.16-6.08,12.36-9.84,20.36-10.5l38.8-.04c4.24-3.71,7.75-8.31,12.26-11.66,1.66-.5,2.56.17,3.75,1.16,9.2,10.22,20.73,19.42,29.71,29.71.59.68,1.08,1.42,1.54,2.19ZM110.17,56.85l-31.25,31.25c-.13.57,1.64,1.04,2.11,1.22,3.43,1.28,7.24,1.06,10.09,3.54,5.33,4.62,3.79,13.49-2.88,15.88-4.76,1.71-13.39-1.48-17.91-3.58-1.85-.86-3.53-2.04-5.42-2.81l-4.5,4.29,26.6,26.84,49.75-49.8-26.6-26.84ZM40.21,77.94c-2.19.44-5.75-.33-8.1,0v23.92h7.33c1.78,0,4.53,4,6.04,5.28,3.13,2.65,7.46,4.66,11.58,5.01-1.51-2.16-4.43-3.19-3.84-6.29.31-1.62,6.67-6.72,6.67-7.21-1.77-1.42-3.84-3.86-1.52-5.9,2.54-2.22,4.83.93,6.69,2.27,4.83,3.48,13.7,8.13,19.69,8.36,3.21.12,4.94-3.89,2.41-6.03-1.15-.98-3.5-.99-5-1.43-7.43-2.14-13.62-5.77-18.66-11.69-1.33-1.56-3.22-3.81-1.43-5.79,3.04-3.38,5.99,2.1,7.88,3.97.4.39,3.12,2.76,3.41,2.71l17.65-17.6-31.26-.14c-5.41.31-10.89,2.25-14.91,5.92-1.16,1.06-3.42,4.39-4.62,4.64Z"/>
  <path class="cls-1" d="M15.32,99.09c5.3-1.1,6.46,6.58,1.68,7.34-5.03.8-5.93-6.46-1.68-7.34Z"/>
  <path class="cls-1" d="M122.26,77.04c3.07,0,3.66,3.11,1.92,5.39-4.66,6.1-12.85,11.81-17.88,17.88-2.86,2.54-6.8-.7-4.5-3.98l19.3-19.03c.37-.1.77-.25,1.16-.25Z"/>
  <path class="cls-1" d="M106.87,78.54c1.03,1.05.92,2.62.26,3.81-.7,1.26-7.63,8.08-9.04,9.22-3.49,2.83-6.89-.47-4.88-3.59.87-1.35,7.76-8.1,9.24-9.28,1.35-1.08,3.05-1.57,4.42-.16Z"/>
</svg>